<svg width="90" height="79" viewBox="0 0 89.9997 78.1614" fill="none" xmlns="http://www.w3.org/2000/svg">
<g id="camera">
<rect id="pixels" y="39.8836" width="30" height="30" fill="var(--fill-0, #BACFF9)"/>
<rect id="pixels_2" x="0.000101484" y="9.88233" width="30" height="30" fill="var(--fill-0, #BACFF9)"/>
<rect id="pixels_3" x="8.00009" width="15" height="10" fill="var(--fill-0, #EFC9BC)"/>
<rect id="pixels_4" x="29.9994" y="9.88211" width="30" height="30" fill="var(--fill-0, #BACFF9)"/>
<rect id="pixels_5" x="29.9993" y="39.8834" width="30" height="30" fill="var(--fill-0, #BACFF9)"/>
<rect id="pixels_6" x="59.9996" y="39.8833" width="30" height="30" fill="var(--fill-0, #BACFF9)"/>
<rect id="pixels_7" x="59.9997" y="9.88206" width="30" height="30" fill="var(--fill-0, #BACFF9)"/>
<path id="Union" d="M37.0637 70.0374L7.06372 70.0374L37.4794 9.99597L67.4794 9.99597L37.0637 70.0374Z" fill="var(--fill-0, #D4E0F8)"/>
<rect id="pixels_8" x="31.9958" y="26.9999" width="26" height="26" rx="13" fill="var(--fill-0, #A2B8E3)" stroke="var(--stroke-0, #879BC7)" stroke-width="4"/>
<rect id="pixels_9" x="67.9996" y="17.0007" width="15" height="10" fill="var(--fill-0, #E7EFFF)"/>
<path id="Star 8" d="M67.654 11.336C68.6346 13.9148 70.6929 15.9364 73.2889 16.8706C70.7102 17.8513 68.6885 19.9096 67.7543 22.5056C66.7737 19.9268 64.7153 17.9051 62.1194 16.971C64.6981 15.9903 66.7198 13.932 67.654 11.336Z" fill="var(--fill-0, #FFFBF5)"/>
</g>
</svg>
