<svg width="90" height="60" viewBox="0 0 90.0007 60.001" fill="none" xmlns="http://www.w3.org/2000/svg">
<g id="film roll">
<rect id="pixels" width="30" height="30" fill="var(--fill-0, #F2B5E3)"/>
<rect id="pixels_2" x="0.0009556" y="30.0007" width="30" height="30" fill="var(--fill-0, #F2B5E3)"/>
<rect id="pixels_3" x="30.001" y="0.000977508" width="30" height="30" fill="var(--fill-0, #F2B5E3)"/>
<rect id="pixels_4" x="30.0007" y="29.9999" width="30" height="30" fill="var(--fill-0, #F2B5E3)"/>
<rect id="pixels_5" x="60.0007" y="0.000161363" width="30" height="30" fill="var(--fill-0, #F2B5E3)"/>
<rect id="pixels_6" x="60.0007" y="30.001" width="30" height="30" fill="var(--fill-0, #F2B5E3)"/>
<rect id="pixels_7" x="4.00101" y="4.0009" width="10" height="10" fill="var(--fill-0, #F9DBF1)"/>
<rect id="pixels_8" x="76.0006" y="4.00049" width="10" height="10" fill="var(--fill-0, #F9DBF1)"/>
<rect id="pixels_9" x="4.00009" y="18" width="10" height="10" fill="var(--fill-0, #F9DBF1)"/>
<rect id="pixels_10" x="76.0009" y="18.0014" width="10" height="10" fill="var(--fill-0, #F9DBF1)"/>
<rect id="pixels_11" x="4.0005" y="32.0007" width="10" height="10" fill="var(--fill-0, #F9DBF1)"/>
<rect id="pixels_12" x="76" y="32.0004" width="10" height="10" fill="var(--fill-0, #F9DBF1)"/>
<rect id="pixels_13" x="4.00047" y="45.9998" width="10" height="10" fill="var(--fill-0, #F9DBF1)"/>
<rect id="pixels_14" x="76.0003" y="46.0013" width="10" height="10" fill="var(--fill-0, #F9DBF1)"/>
<path id="Polygon 21" d="M59.0006 29.9998L34.0006 44.9998V14.9998L59.0006 29.9998Z" fill="var(--fill-0, #DA95C9)"/>
</g>
</svg>
