<svg preserveAspectRatio="none" width="100%" height="100%" overflow="visible" style="display: block;" viewBox="0 0 50.937 50" fill="none" xmlns="http://www.w3.org/2000/svg">
<g id="Logo">
<path id="Vector 1076" d="M32.7061 20.1311C32.0666 19.6213 31.4252 19.1123 30.7921 18.5902C29.0928 17.1889 29.8688 14.7725 31.5738 14.4899C34.476 14.0089 33.0423 18.6061 32.7061 20.1311ZM32.7061 20.1311C34.2134 21.3327 35.4527 22.4584 36.8074 23.8483M32.7061 20.1311C30.7921 27.4891 24.3927 29.967 21.6615 25.5291C11.4276 8.90098 5.78165 18.2511 9.0404 26.3102C12.2992 34.3694 20.265 40.0407 24.3927 36.6081C29.9807 31.9612 26.4928 4.37141 22.2202 10.7143C17.9476 17.0572 20.7838 22.9824 11.1963 33.2143C8.88886 35.6768 4.02751 35.9101 1.90418 29.0417C-1.12874 17.1308 6.98224 6.8087 14.0136 4.07061C33.5551 -4.62195 57.8696 11.8441 46.9963 35.9946C41.0838 47.8507 22.5875 52.2585 11.1963 44.2857M36.8074 23.8483C34.4175 25.3154 32.4309 27.3773 31.337 29.967C30.9071 30.985 29.5781 34.1928 32.6562 36.5275C34.5617 37.9727 36.9823 37.7557 38.3726 36.904C45.0959 32.1272 39.3153 26.4212 36.8074 23.8483ZM36.8074 23.8483C39.4008 22.3287 41.2314 23.1671 41.689 23.8483M6.9823 40.3207C7.27568 40.6901 7.57926 41.0458 7.89238 41.3882" stroke="var(--stroke-0, #222120)" stroke-width="2.5" stroke-linecap="round"/>
</g>
</svg>
