<svg preserveAspectRatio="none" width="100%" height="100%" overflow="visible" style="display: block;" viewBox="0 0 70.8118 70" fill="none" xmlns="http://www.w3.org/2000/svg">
<g id="Logo">
<path id="Vector 1076" d="M45.5385 28.1836C44.6432 27.4699 43.7453 26.7572 42.8589 26.0263C40.4799 24.0645 41.5663 20.6815 43.9533 20.2858C48.0163 19.6124 46.0092 26.0485 45.5385 28.1836ZM45.5385 28.1836C47.6487 29.8657 49.3837 31.4418 51.2804 33.3876M45.5385 28.1836C42.8589 38.4848 33.8998 41.9538 30.076 35.7408C15.7486 12.4614 7.84426 25.5515 12.4065 36.8343C16.9688 48.1171 28.1209 56.057 33.8998 51.2513C41.7229 44.7457 36.8399 6.11998 30.8583 15C24.8766 23.88 28.8473 32.1753 15.4248 46.5C12.1944 49.9475 5.38847 50.2742 2.4158 40.6583C-1.83028 23.9831 9.5251 9.53217 19.3689 5.69886C46.7271 -6.47073 80.7674 16.5817 65.5447 50.3924C57.2673 66.991 31.3725 73.1619 15.4248 62M51.2804 33.3876C47.9344 35.4416 45.1532 38.3282 43.6218 41.9538C43.0198 43.379 41.1594 47.8699 45.4687 51.1385C48.1363 53.1618 51.5252 52.858 53.4716 51.6656C62.8843 44.978 54.7914 36.9896 51.2804 33.3876ZM51.2804 33.3876C54.911 31.2602 57.4739 32.4339 58.1146 33.3876M9.52518 56.449C9.9359 56.9661 10.3609 57.4642 10.7993 57.9434" stroke="var(--stroke-0, #DFDEDD)" stroke-width="3" stroke-linecap="round"/>
</g>
</svg>
