<svg preserveAspectRatio="none" width="100%" height="100%" overflow="visible" style="display: block;" viewBox="0 0 32 32" fill="none" xmlns="http://www.w3.org/2000/svg">
<g id="tdesign:logo-instagram-filled">
<path id="Subtract" d="M16.0674 1.33203C18.5034 1.33203 20.4223 1.33168 21.9609 1.47168C23.5315 1.61302 24.8357 1.90971 26.001 2.58301C27.4195 3.40214 28.5979 4.58042 29.417 5.99902C30.0902 7.16426 30.386 8.46857 30.5273 10.0391C30.6673 11.5776 30.667 13.496 30.667 15.9316V16.0654C30.667 18.5014 30.6673 20.4203 30.5273 21.959C30.386 23.5295 30.0903 24.8338 29.417 25.999C28.5979 27.4177 27.4196 28.5959 26.001 29.415C24.8357 30.0883 23.5315 30.384 21.9609 30.5254C20.4223 30.6654 18.5034 30.665 16.0674 30.665H15.9336C13.498 30.665 11.5795 30.6654 10.041 30.5254C8.47052 30.3841 7.16621 30.0882 6.00098 29.415C4.58237 28.596 3.40409 27.4176 2.58496 25.999C1.91166 24.8338 1.61498 23.5295 1.47363 21.959C1.33363 20.4203 1.33398 18.5014 1.33398 16.0654V15.9316C1.33398 13.496 1.33368 11.5776 1.47363 10.0391C1.61496 8.46845 1.91167 7.16433 2.58496 5.99902C3.4041 4.58029 4.58225 3.40215 6.00098 2.58301C7.16628 1.90972 8.4704 1.61301 10.041 1.47168C11.5795 1.33172 13.498 1.33203 15.9336 1.33203H16.0674ZM10 9.33105C9.74968 9.33105 9.52024 9.47149 9.40625 9.69434C9.29228 9.91724 9.31338 10.1857 9.45996 10.3887L14.1592 16.8965L9.52832 21.5264C9.268 21.7867 9.26802 22.2094 9.52832 22.4697C9.78864 22.7301 10.2113 22.73 10.4717 22.4697L14.9502 17.9902L18.126 22.3887C18.2512 22.562 18.4522 22.6649 18.666 22.665H22C22.2503 22.665 22.4798 22.5246 22.5938 22.3018C22.7077 22.0789 22.6866 21.8104 22.54 21.6074L17.8408 15.0996L22.4717 10.4697C22.732 10.2094 22.732 9.78669 22.4717 9.52637C22.2113 9.26607 21.7886 9.26604 21.5283 9.52637L17.0498 14.0059L13.873 9.60742C13.7634 9.45567 13.5956 9.35801 13.4121 9.33594L13.332 9.33105H10ZM12.9912 10.665L16.4277 15.4209C16.4296 15.4234 16.4317 15.4262 16.4336 15.4287L20.6963 21.3311H19.0078L15.5732 16.5762L11.3037 10.665H12.9912Z" fill="var(--fill-0, #726653)"/>
</g>
</svg>
