<svg preserveAspectRatio="none" width="100%" height="100%" overflow="visible" style="display: block;" viewBox="0 0 229.569 155.955" fill="none" xmlns="http://www.w3.org/2000/svg">
<g id="Group 62">
<path id="Subtract" d="M9.10352 0C9.10381 3.84481 12.2384 6.96178 16.1055 6.96191C19.9727 6.96191 23.1081 3.84489 23.1084 0L37.1143 0C37.1145 3.8448 40.2492 6.9617 44.1162 6.96191C47.8629 6.96191 50.923 4.03625 51.1104 0.357422L51.1191 0L65.124 0V0.000976563C65.124 3.84611 68.2596 6.96289 72.127 6.96289C75.9941 6.96264 79.1289 3.84499 79.1289 0L93.1328 0C93.133 3.84499 96.2685 6.96191 100.136 6.96191C103.882 6.96191 106.941 4.03682 107.129 0.358398L107.139 0L121.145 0C121.145 3.84499 124.279 6.96189 128.146 6.96191C131.893 6.96191 134.952 4.03684 135.14 0.358398L135.149 0L149.153 0C149.153 3.84515 152.289 6.96191 156.156 6.96191C160.023 6.96166 163.158 3.84499 163.158 0L177.163 0V0.000976563C177.163 3.84584 180.298 6.96276 184.165 6.96289C188.032 6.96289 191.168 3.84592 191.168 0.000976563V0L205.174 0C205.174 3.84506 208.309 6.96191 212.177 6.96191C216.044 6.96168 219.179 3.84492 219.179 0L229.569 0V14.123C225.808 14.2436 222.797 17.3113 222.797 21.0801C222.797 24.8488 225.808 27.9156 229.569 28.0361V41.9736C225.808 42.094 222.796 45.1618 222.796 48.9307C222.796 52.6995 225.808 55.7664 229.569 55.8867V69.8232C225.807 69.9425 222.794 73.0108 222.794 76.7803C222.794 80.5496 225.807 83.617 229.569 83.7363V97.6719C225.808 97.7916 222.795 100.86 222.795 104.629C222.795 108.398 225.808 111.465 229.569 111.585V126.216C225.808 126.336 222.795 129.404 222.795 133.173C222.795 136.942 225.808 140.009 229.569 140.129V155.955H219.18V155.954C219.18 152.109 216.045 148.992 212.178 148.992C208.31 148.992 205.175 152.109 205.175 155.954V155.955H191.168C191.168 152.11 188.032 148.992 184.165 148.992C180.298 148.992 177.163 152.11 177.163 155.955H163.158V155.954C163.158 152.109 160.023 148.992 156.156 148.992C152.289 148.992 149.153 152.109 149.153 155.954V155.955H135.149V155.954C135.149 152.109 132.014 148.991 128.146 148.991C124.279 148.991 121.144 152.109 121.144 155.954V155.955H107.14V155.954C107.14 152.109 104.004 148.992 100.137 148.992C96.2694 148.992 93.1348 152.109 93.1348 155.954V155.955H79.1279C79.1277 152.11 75.9922 148.993 72.125 148.993C68.2577 148.993 65.1223 152.11 65.1221 155.955H51.1182C51.1182 152.11 47.9826 148.993 44.1152 148.993C40.248 148.993 37.1133 152.11 37.1133 155.955H23.1084C23.1083 152.11 19.9728 148.993 16.1055 148.993C12.2384 148.993 9.10365 152.11 9.10352 155.955H0L0 140.637C3.86716 140.637 7.00173 137.52 7.00195 133.675C7.00195 129.83 3.8673 126.712 0 126.712L0 112.788C3.86691 112.788 7.00178 109.672 7.00195 105.827C7.00195 101.982 3.86701 98.8647 0 98.8643L0 84.9385C3.86707 84.9383 7.00178 81.8214 7.00195 77.9766C7.00195 74.1316 3.86718 71.0139 0 71.0137L0 57.0889L0.00195313 57.0898C3.86932 57.0898 7.00488 53.9731 7.00488 50.1279C7.00487 46.2828 3.86931 43.166 0.00195313 43.166H0L0 29.2412L0.000976563 29.2422C3.86835 29.2422 7.00391 26.1244 7.00391 22.2793C7.00381 18.4342 3.86829 15.3174 0.000976563 15.3174H0L0 0L9.10352 0Z" fill="var(--fill-0, #D9B990)"/>
<g id="Frame 36">
<rect width="197.472" height="119.751" transform="translate(16.7096 18.1004)" fill="#F4DCDC"/>
</g>
</g>
</svg>
