<svg width="71" height="70" viewBox="0 0 71 70" fill="none" xmlns="http://www.w3.org/2000/svg">
<path d="M45.5383 28.1836C44.6429 27.4699 43.745 26.7572 42.8586 26.0263C40.4796 24.0645 41.566 20.6815 43.9531 20.2858C48.0161 19.6124 46.0089 26.0485 45.5383 28.1836ZM45.5383 28.1836C47.6485 29.8657 49.3834 31.4418 51.2801 33.3876M45.5383 28.1836C42.8586 38.4848 33.8995 41.9538 30.0757 35.7408C15.7484 12.4614 7.844 25.5515 12.4062 36.8343C16.9685 48.1171 28.1207 56.057 33.8995 51.2513C41.7226 44.7457 36.8396 6.11998 30.858 15C24.8764 23.88 28.847 32.1753 15.4245 46.5C12.1941 49.9475 5.3882 50.2742 2.41553 40.6583C-1.83055 23.9831 9.52483 9.53217 19.3687 5.69886C46.7269 -6.47073 80.7671 16.5817 65.5445 50.3924C57.267 66.991 31.3722 73.1619 15.4245 62M51.2801 33.3876C47.9342 35.4416 45.1529 38.3282 43.6215 41.9538C43.0196 43.379 41.1591 47.8699 45.4684 51.1385C48.1361 53.1618 51.5249 52.858 53.4714 51.6656C62.884 44.978 54.7911 36.9896 51.2801 33.3876ZM51.2801 33.3876C54.9108 31.2602 57.4736 32.4339 58.1143 33.3876M9.52491 56.449C9.93564 56.9661 10.3606 57.4642 10.799 57.9434" stroke="#222120" stroke-width="3" stroke-linecap="round"/>
</svg>
