<svg preserveAspectRatio="none" width="100%" height="100%" overflow="visible" style="display: block;" viewBox="0 0 32 32" fill="none" xmlns="http://www.w3.org/2000/svg">
<g id="tdesign:logo-instagram-filled">
<path id="Vector" d="M10.666 15.9993C10.666 14.5849 11.2279 13.2283 12.2281 12.2281C13.2283 11.2279 14.5849 10.666 15.9993 10.666C17.4138 10.666 18.7704 11.2279 19.7706 12.2281C20.7708 13.2283 21.3327 14.5849 21.3327 15.9993C21.3327 17.4138 20.7708 18.7704 19.7706 19.7706C18.7704 20.7708 17.4138 21.3327 15.9993 21.3327C14.5849 21.3327 13.2283 20.7708 12.2281 19.7706C11.2279 18.7704 10.666 17.4138 10.666 15.9993Z" fill="var(--fill-0, #726653)"/>
<path id="Vector_2" d="M16.0654 1.33398C18.5014 1.33398 20.42 1.33398 21.9587 1.47398C23.5294 1.61532 24.8334 1.91132 25.9987 2.58465C27.4174 3.40379 28.5956 4.58192 29.4147 6.00065C30.088 7.16598 30.384 8.46998 30.5254 10.0407C30.6654 11.5793 30.6654 13.498 30.6654 15.934V16.0673C30.6654 18.5033 30.6654 20.422 30.5254 21.9607C30.384 23.5313 30.088 24.8353 29.4147 26.0007C28.5956 27.4194 27.4174 28.5975 25.9987 29.4167C24.8334 30.09 23.5294 30.386 21.9587 30.5273C20.42 30.6673 18.5014 30.6673 16.0654 30.6673H15.932C13.496 30.6673 11.5774 30.6673 10.0387 30.5273C8.46803 30.386 7.16403 30.09 5.9987 29.4167C4.57997 28.5975 3.40184 27.4194 2.5827 26.0007C1.90936 24.8353 1.61336 23.5313 1.47203 21.9607C1.33203 20.422 1.33203 18.5033 1.33203 16.0673V15.934C1.33203 13.498 1.33203 11.5793 1.47203 10.0407C1.61336 8.46998 1.90936 7.16598 2.5827 6.00065C3.40184 4.58192 4.57997 3.40379 5.9987 2.58465C7.16403 1.91132 8.46803 1.61532 10.0387 1.47398C11.5774 1.33398 13.496 1.33398 15.932 1.33398H16.0654ZM24.332 6.33398C23.9784 6.33398 23.6393 6.47446 23.3892 6.72451C23.1392 6.97456 22.9987 7.3137 22.9987 7.66732V7.67265C22.9987 8.02627 23.1392 8.36541 23.3892 8.61546C23.6393 8.86551 23.9784 9.00598 24.332 9.00598H24.3374C24.691 9.00598 25.0301 8.86551 25.2802 8.61546C25.5302 8.36541 25.6707 8.02627 25.6707 7.67265V7.66732C25.6707 7.3137 25.5302 6.97456 25.2802 6.72451C25.0301 6.47446 24.691 6.33398 24.3374 6.33398H24.332ZM15.9987 8.00065C13.877 8.00065 11.8421 8.84351 10.3418 10.3438C8.84155 11.8441 7.9987 13.8789 7.9987 16.0007C7.9987 18.1224 8.84155 20.1572 10.3418 21.6575C11.8421 23.1578 13.877 24.0007 15.9987 24.0007C18.1204 24.0007 20.1553 23.1578 21.6556 21.6575C23.1558 20.1572 23.9987 18.1224 23.9987 16.0007C23.9987 13.8789 23.1558 11.8441 21.6556 10.3438C20.1553 8.84351 18.1204 8.00065 15.9987 8.00065Z" fill="var(--fill-0, #726653)"/>
</g>
</svg>
