<svg preserveAspectRatio="none" width="100%" height="100%" overflow="visible" style="display: block;" viewBox="0 0 32 32" fill="none" xmlns="http://www.w3.org/2000/svg">
<g id="tdesign:logo-instagram-filled">
<path id="Subtract" d="M16.0654 1.33203C18.5014 1.33203 20.4203 1.33168 21.959 1.47168C23.5295 1.61302 24.8338 1.90971 25.999 2.58301C27.4176 3.40214 28.596 4.58042 29.415 5.99902C30.0882 7.16426 30.3841 8.46857 30.5254 10.0391C30.6654 11.5776 30.665 13.496 30.665 15.9316V16.0654C30.665 18.5014 30.6654 20.4203 30.5254 21.959C30.384 23.5295 30.0883 24.8338 29.415 25.999C28.5959 27.4177 27.4177 28.5959 25.999 29.415C24.8338 30.0883 23.5295 30.384 21.959 30.5254C20.4203 30.6654 18.5014 30.665 16.0654 30.665H15.9316C13.496 30.665 11.5776 30.6654 10.0391 30.5254C8.46857 30.3841 7.16426 30.0882 5.99902 29.415C4.58042 28.596 3.40214 27.4176 2.58301 25.999C1.90971 24.8338 1.61302 23.5295 1.47168 21.959C1.33168 20.4203 1.33203 18.5014 1.33203 16.0654V15.9316C1.33203 13.496 1.33172 11.5776 1.47168 10.0391C1.61301 8.46845 1.90972 7.16433 2.58301 5.99902C3.40215 4.58029 4.58029 3.40215 5.99902 2.58301C7.16433 1.90972 8.46845 1.61301 10.0391 1.47168C11.5776 1.33172 13.496 1.33203 15.9316 1.33203H16.0654ZM10.665 13.332C10.3115 13.3321 9.97263 13.4727 9.72266 13.7227C9.47268 13.9726 9.33212 14.3115 9.33203 14.665V21.332C9.33203 21.6856 9.47271 22.0244 9.72266 22.2744C9.97263 22.5244 10.3115 22.665 10.665 22.665C11.0187 22.665 11.3583 22.5245 11.6084 22.2744C11.8582 22.0244 11.999 21.6855 11.999 21.332V14.665C11.9989 14.3116 11.8583 13.9726 11.6084 13.7227C11.3583 13.4726 11.0187 13.332 10.665 13.332ZM18.665 13.332C18.1304 13.3318 17.601 13.4387 17.1084 13.6465L16.9414 13.7227C16.755 13.5363 16.5173 13.4098 16.2588 13.3584C16.0002 13.307 15.7319 13.3327 15.4883 13.4336C15.2448 13.5345 15.0371 13.7057 14.8906 13.9248C14.7442 14.1439 14.6652 14.4015 14.665 14.665V21.332C14.665 21.6855 14.8058 22.0244 15.0557 22.2744C15.3057 22.5245 15.6454 22.665 15.999 22.665C16.3525 22.665 16.6914 22.5244 16.9414 22.2744C17.1914 22.0244 17.332 21.6856 17.332 21.332V17.332C17.332 16.9785 17.4727 16.6397 17.7227 16.3896C17.9726 16.1397 18.3115 15.9991 18.665 15.999C19.0187 15.999 19.3584 16.1396 19.6084 16.3896C19.8582 16.6397 19.999 16.9786 19.999 17.332V21.332C19.999 21.6857 20.1396 22.0244 20.3896 22.2744C20.6397 22.5245 20.9784 22.665 21.332 22.665C21.6857 22.665 22.0244 22.5245 22.2744 22.2744C22.5245 22.0244 22.665 21.6857 22.665 21.332V17.332C22.665 16.2713 22.2441 15.254 21.4941 14.5039C20.744 13.7538 19.7259 13.332 18.665 13.332ZM10.665 9.33203C10.3386 9.33215 10.0233 9.45201 9.7793 9.66895C9.53532 9.88595 9.38 10.1855 9.3418 10.5098L9.33203 10.6787C9.33241 11.0185 9.463 11.3457 9.69629 11.5928C9.92947 11.8396 10.2479 11.9878 10.5869 12.0078C10.9262 12.0277 11.2609 11.9173 11.5215 11.6992C11.7818 11.4812 11.9491 11.1721 11.9893 10.835L11.999 10.665C11.9989 10.3116 11.8583 9.97261 11.6084 9.72266C11.3583 9.47261 11.0187 9.33203 10.665 9.33203Z" fill="var(--fill-0, #726653)"/>
</g>
</svg>
